<svg xmlns="http://www.w3.org/2000/svg" version="1.1" xmlns:xlink="http://www.w3.org/1999/xlink" xmlns:svgjs="http://svgjs.com/svgjs" width="1920" height="1080" preserveAspectRatio="none" viewBox="0 0 1920 1080"><g mask="url(&quot;#SvgjsMask1166&quot;)" fill="none"><path d="M 0,351 C 64,318.6 192,158 320,189 C 448,220 512,511.2 640,506 C 768,500.8 832,209.8 960,163 C 1088,116.2 1152,264.8 1280,272 C 1408,279.2 1472,180.2 1600,199 C 1728,217.8 1856,332.6 1920,366L1920 1080L0 1080z" fill="rgba(252, 244, 242, 1)"></path><path d="M 0,599 C 76.8,654.6 230.4,887.8 384,877 C 537.6,866.2 614.4,542.6 768,545 C 921.6,547.4 998.4,864.8 1152,889 C 1305.6,913.2 1382.4,641.8 1536,666 C 1689.6,690.2 1843.2,941.2 1920,1010L1920 1080L0 1080z" fill="rgba(242, 252, 247, 1)"></path></g><defs><mask id="SvgjsMask1166"><rect width="1920" height="1080" fill="#ffffff"></rect></mask></defs></svg>