<svg xmlns="http://www.w3.org/2000/svg" version="1.1" xmlns:xlink="http://www.w3.org/1999/xlink" xmlns:svgjs="http://svgjs.com/svgjs" width="1440" height="560" preserveAspectRatio="none" viewBox="0 0 1440 560"><g mask="url(&quot;#SvgjsMask1076&quot;)" fill="none"><path d="M 0,91 C 20.6,103.4 61.8,163.8 103,153 C 144.2,142.2 164.8,32.6 206,37 C 247.2,41.4 267.8,167.6 309,175 C 350.2,182.4 370.8,76.2 412,74 C 453.2,71.8 473.8,153.8 515,164 C 556.2,174.2 576.8,108.4 618,125 C 659.2,141.6 679.8,246.6 721,247 C 762.2,247.4 782.8,139 824,127 C 865.2,115 885.8,207.2 927,187 C 968.2,166.8 988.8,29.2 1030,26 C 1071.2,22.8 1091.8,164.2 1133,171 C 1174.2,177.8 1194.8,57.4 1236,60 C 1277.2,62.6 1298.2,170.4 1339,184 C 1379.8,197.6 1419.8,139.2 1440,128L1440 560L0 560z" fill="rgba(199, 204, 211, 1)"></path><path d="M 0,557 C 144,526 432,411.4 720,402 C 1008,392.6 1296,488.4 1440,510L1440 560L0 560z" fill="rgba(181, 185, 189, 1)"></path></g><defs><mask id="SvgjsMask1076"><rect width="1440" height="560" fill="#ffffff"></rect></mask></defs></svg>